<svg width="40" height="30" viewBox="0 0 40 30" fill="none" xmlns="http://www.w3.org/2000/svg">
<path d="M2.13109 0.0101422C1.46827 0.116193 0.874729 0.481203 0.481036 1.02487C0.0873429 1.56855 -0.074253 2.24634 0.0317977 2.90916C0.137848 3.57198 0.502859 4.16552 1.04653 4.55921C1.5902 4.95291 2.268 5.1145 2.93082 5.00845H10.4283L10.8781 6.25803L12.9274 12.5059L14.9767 18.7538C15.1767 19.4036 16.0264 20.0034 16.6762 20.0034H34.1703C34.87 20.0034 35.6698 19.4036 35.8697 18.7538L39.9183 6.25803C40.1182 5.60825 39.8183 5.00845 39.1186 5.00845H16.9261L15.0267 1.40967C14.8244 0.996605 14.5121 0.64738 14.124 0.400448C13.736 0.153516 13.2873 0.0184569 12.8275 0.0101422L2.83085 0.0101422C2.68121 -0.00338072 2.53065 -0.00338072 2.381 0.0101422C2.28113 0.00413878 2.18098 0.00413878 2.0811 0.0101422L2.13109 0.0101422ZM17.9257 25.0017C16.5262 25.0017 15.4266 26.1013 15.4266 27.5008C15.4266 28.9004 16.5262 30 17.9257 30C19.3253 30 20.4249 28.9004 20.4249 27.5008C20.4249 26.1013 19.3253 25.0017 17.9257 25.0017ZM32.9207 25.0017C31.5212 25.0017 30.4215 26.1013 30.4215 27.5008C30.4215 28.9004 31.5212 30 32.9207 30C34.3202 30 35.4198 28.9004 35.4198 27.5008C35.4198 26.1013 34.3202 25.0017 32.9207 25.0017Z" fill="black"/>
</svg>
